<svg xmlns="http://www.w3.org/2000/svg" viewBox="0 0 1024 1024" width="1024" height="1024" fill="none" role="img" aria-label="aalai app icon">
<g transform="translate(100 100) scale(1.609375)"><rect width="512" height="512" rx="112" fill="#111110"/><g transform="translate(54 54)"><mask id="k1" maskUnits="userSpaceOnUse" x="0" y="0" width="404" height="404"><path fill="#fff" d="M0 72.7L101.0 18.2L101.0 72.7L202.0 18.2L202.0 72.7L303.0 18.2L303.0 72.7L404.0 18.2L404.0 72.7L404 374A30 30 0 0 1 374 404L30 404A30 30 0 0 1 0 374Z"/><g transform="translate(57.60 261.37) scale(0.21408)"><path fill="#000" d="M698.0 -202.0Q701.0 -220.0 701.0 -242.0Q701.0 -308.0 672.0 -354.0Q643.0 -400.0 590.0 -415.0Q609.0 -391.0 609.0 -357.0Q609.0 -329.0 598.0 -306.5Q587.0 -284.0 568.5 -268.5Q550.0 -253.0 524.5 -244.5Q499.0 -236.0 469.0 -236.0Q439.0 -236.0 411.5 -245.0Q384.0 -254.0 363.5 -271.0Q343.0 -288.0 330.5 -312.5Q318.0 -337.0 318.0 -369.0Q318.0 -399.0 331.0 -425.5Q344.0 -452.0 369.0 -472.0Q394.0 -492.0 430.0 -503.5Q466.0 -515.0 513.0 -515.0Q584.0 -515.0 642.5 -494.5Q701.0 -474.0 742.5 -437.0Q784.0 -400.0 806.5 -348.0Q829.0 -296.0 829.0 -233.0Q829.0 -223.0 828.5 -215.5Q828.0 -208.0 827.0 -201.0H936.0V-505.0H1067.0V-152.0Q1103.0 -179.0 1156.0 -179.0Q1198.0 -179.0 1231.0 -164.5Q1264.0 -150.0 1287.0 -123.0Q1310.0 -96.0 1322.5 -58.0Q1335.0 -20.0 1335.0 26.0Q1335.0 85.0 1311.5 135.5Q1288.0 186.0 1245.5 222.5Q1203.0 259.0 1144.0 279.5Q1085.0 300.0 1015.0 300.0Q958.0 300.0 911.0 285.5Q864.0 271.0 830.5 245.5Q797.0 220.0 778.0 184.0Q759.0 148.0 759.0 104.0Q759.0 86.0 762.0 66.0Q765.0 46.0 773.0 32.0L895.0 59.0Q893.0 67.0 891.5 76.0Q890.0 85.0 890.0 98.0Q890.0 141.0 925.0 166.5Q960.0 192.0 1020.0 192.0Q1063.0 192.0 1096.0 179.0Q1129.0 166.0 1152.0 143.5Q1175.0 121.0 1187.0 91.0Q1199.0 61.0 1199.0 26.0Q1199.0 -18.0 1177.5 -44.5Q1156.0 -71.0 1120.0 -71.0Q1085.0 -71.0 1066.0 -52.0V97.0H939.0V-97.0H816.0Q797.0 -47.0 758.0 -8.0Q719.0 31.0 664.0 58.0Q609.0 85.0 541.0 99.5Q473.0 114.0 395.0 114.0Q306.0 114.0 235.5 100.5Q165.0 87.0 115.5 61.0Q66.0 35.0 40.0 -2.0Q14.0 -39.0 14.0 -86.0Q14.0 -140.0 53.5 -171.0Q93.0 -202.0 162.0 -202.0ZM399.0 4.0Q502.0 4.0 570.5 -22.5Q639.0 -49.0 671.0 -97.0H182.0Q151.0 -97.0 151.0 -73.0Q151.0 -56.0 168.5 -41.5Q186.0 -27.0 218.5 -17.0Q251.0 -7.0 297.0 -1.5Q343.0 4.0 399.0 4.0ZM515.0 -374.0Q515.0 -390.0 507.0 -402.5Q499.0 -415.0 485.0 -422.0Q462.0 -422.0 447.0 -409.0Q432.0 -396.0 432.0 -373.0Q432.0 -353.0 444.0 -341.0Q456.0 -329.0 474.0 -329.0Q494.0 -329.0 504.5 -341.5Q515.0 -354.0 515.0 -374.0Z"/></g></mask><rect width="404" height="404" fill="#FBFBF9" mask="url(#k1)"/></g>
</g>
</svg>
